<?xml version="1.0" encoding="UTF-8"?>
<svg id="svg6" width="48" height="48" version="1.1" viewBox="0 0 48 48" xmlns="http://www.w3.org/2000/svg" xmlns:xlink="http://www.w3.org/1999/xlink">
 <metadata xmlns:cc="http://creativecommons.org/ns#" xmlns:dc11="http://purl.org/dc/elements/1.1/" xmlns:dcterms="http://purl.org/dc/terms/" xmlns:geo="http://www.w3.org/2003/01/geo/wgs84_pos#" xmlns:rdf="http://www.w3.org/1999/02/22-rdf-syntax-ns#">
  <rdf:RDF>
   <cc:Work rdf:about="">
    <dc11:format>image/svg+xml</dc11:format>
    <dc11:type rdf:resource="http://purl.org/dc/dcmitype/StillImage"/>
    <cc:license rdf:resource="http://creativecommons.org/licenses/by-sa/4.0/"/>
    <cc:license rdf:resource="http://opendatacommons.org/licenses/odbl/1.0/"/>
    <cc:attributionName>Rebbj, and Google Inc. (for the original icon this one is derived from)</cc:attributionName>
    <cc:attributionURL rdf:resource="https://addons.mozilla.org/fr/firefox/addon/classic-wikipedia/"/>
    <dcterms:isVersionOf rdf:resource="https://commons.wikimedia.org/wiki/File:Ic_settings_backup_restore_48px.svg"/>
   </cc:Work>
   <cc:License rdf:about="http://creativecommons.org/licenses/by-sa/4.0/">
    <cc:permits rdf:resource="http://creativecommons.org/ns#Reproduction"/>
    <cc:permits rdf:resource="http://creativecommons.org/ns#Distribution"/>
    <cc:permits rdf:resource="http://creativecommons.org/ns#DerivativeWorks"/>
    <cc:requires rdf:resource="http://creativecommons.org/ns#Notice"/>
    <cc:requires rdf:resource="http://creativecommons.org/ns#Attribution"/>
    <cc:requires rdf:resource="http://creativecommons.org/ns#ShareAlike"/>
   </cc:License>
  </rdf:RDF>
 </metadata>
 <path id="path2" d="m0 0h48v48h-48z" fill="none"/>
 <path id="path4" d="m29.834 22.777c0-2.3601-1.9073-4.2718-4.2621-4.2718-2.3548 0-4.2621 1.9116-4.2621 4.2718s1.9073 4.2718 4.2621 4.2718c2.3548 0 4.2621-1.9116 4.2621-4.2718zm-4.2621-19.223c-10.591 0-19.179 8.6076-19.179 19.223h-6.3931l8.5241 8.5435 8.5241-8.5435h-6.3931c0-8.2552 6.6808-14.951 14.917-14.951 8.2364 0 14.917 6.696 14.917 14.951 0 8.2552-6.6808 14.951-14.917 14.951-3.2285 0-6.2013-1.0359-8.652-2.7873l-3.0154 3.065c3.2392 2.499 7.2775 3.9941 11.667 3.9941 10.591 0 19.179-8.6076 19.179-19.223s-8.588-19.223-19.179-19.223z" stroke-width="1.0667"/>
 <rect id="rect8463" x="18.038" y="15.592" width="15.745" height="15.057" fill="#fff" stroke-width="1.3306"/>
 <g id="layer2"></g>
 <text id="text16334" x="16.038216" y="30.649681" fill="#000000" font-family="sans-serif" font-size="21.333px" letter-spacing="0px" word-spacing="0px" style="line-height:1.25" xml:space="preserve"><tspan id="tspan16332" x="16.038216" y="30.649681" font-family="sans-serif" font-size="21.333px" font-weight="bold">W</tspan></text>
</svg>
